<svg xmlns="http://www.w3.org/2000/svg" width="31.053" height="63.484" viewBox="0 0 31.053 63.484">
    <defs>
        <style>
            .cls-1{fill:#aca1a8}.cls-3{fill:#fbc2b2}.cls-4{fill:#e3f5fd}.cls-5{fill:#92bade}.cls-11{fill:#040505}
        </style>
    </defs>
    <g id="Group_1778" transform="translate(-393.177 -191.645)">
        <g id="Group_1775" transform="translate(394.105 193.466)">
            <g id="Group_1757" transform="translate(4.163)">
                <path id="Path_531" d="M395.689 200.486a7.229 7.229 0 0 1 4.938-6.752 17.333 17.333 0 0 1 3.618-1.09.878.878 0 0 1 1.028.853l.01.669a10.152 10.152 0 0 1 5.063-1.62.879.879 0 0 1 .953.876v.93s1.542-1.879 6.15-1.153a.883.883 0 0 1 .728.689c.259 1.267.638 4.332-1.123 6.6z" class="cls-1" transform="translate(-395.689 -192.543)"/>
            </g>
            <g id="Group_1758" transform="translate(22.667 .49)">
                <path id="Path_532" fill="#8e8e8e" d="M407.678 200.238h-2.609c1.761-2.266 1.382-5.331 1.121-6.6a.878.878 0 0 0-.728-.689c-.221-.034-.436-.065-.645-.087a11.325 11.325 0 0 1 3.253.087.883.883 0 0 1 .73.689c.26 1.269.639 4.334-1.122 6.6z" transform="translate(-404.818 -192.785)"/>
            </g>
            <g id="Group_1759" transform="translate(3.539 11.729)">
                <path id="Path_533" d="M406.44 219.67a11.06 11.06 0 0 1-11.059-11.059V198.33H417.5v10.281a11.06 11.06 0 0 1-11.06 11.059z" class="cls-3" transform="translate(-395.381 -198.33)"/>
            </g>
            <g id="Group_1760" transform="translate(3.539 11.703)">
                <path id="Path_534" d="M395.381 204.7a8.148 8.148 0 0 0 5.055-6.381h-5.055z" class="cls-1" transform="translate(-395.381 -198.317)"/>
            </g>
            <g id="Group_1761" transform="translate(0 18.084)">
                <path id="Path_535" d="M397.174 205.758h-1.392a2.147 2.147 0 1 1 0-4.293h1.392z" class="cls-3" transform="translate(-393.635 -201.465)"/>
            </g>
            <g id="Group_1762" transform="translate(25.657 18.084)">
                <path id="Path_536" d="M406.293 205.758h1.392a2.147 2.147 0 1 0 0-4.293h-1.392z" class="cls-3" transform="translate(-406.293 -201.465)"/>
            </g>
            <g id="Group_1763" transform="translate(.987 36.004)">
                <path id="Path_537" d="M421.344 235.929h-27.222v-12.012a13.611 13.611 0 1 1 27.222 0v12.012z" class="cls-4" transform="translate(-394.122 -210.306)"/>
            </g>
            <g id="Group_1764" transform="translate(13.36 36.004)">
                <path id="Path_538" d="M415.075 223.917v12.012H412.6v-12.012a13.608 13.608 0 0 0-12.372-13.554c.407-.039.821-.057 1.238-.057a13.609 13.609 0 0 1 13.611 13.611z" class="cls-5" transform="translate(-400.226 -210.306)"/>
            </g>
            <g id="Group_1765" transform="translate(11.991 32.007)">
                <path id="Path_539" d="M399.551 213.73a2.607 2.607 0 0 0 5.213 0v-5.4h-5.213v5.4z" class="cls-3" transform="translate(-399.551 -208.334)"/>
            </g>
            <g id="Group_1766" transform="translate(13.295 32.007)">
                <path id="Path_540" fill="#f69c8c" d="M404.1 208.334v5.4a2.606 2.606 0 0 1-3.908 2.256 2.6 2.6 0 0 0 1.3-2.256v-5.4z" transform="translate(-400.194 -208.334)"/>
            </g>
            <g id="Group_1767" transform="translate(3.539 19.166)">
                <path id="Path_541" d="M417.5 202v2.844a11.059 11.059 0 1 1-22.118 0V202c.586.722 5.821 4.609 11.059 4.609s10.472-3.888 11.059-4.609z" class="cls-4" transform="translate(-395.381 -201.999)"/>
            </g>
            <g id="Group_1768" transform="translate(13.358 19.166)">
                <path id="Path_542" d="M412.525 202v2.844a11.058 11.058 0 0 1-11.059 11.056c-.105 0-.209 0-.314-.006-.089 0-.178 0-.268-.01-.045 0-.089 0-.134-.008-.073 0-.146-.01-.219-.016-.1-.008-.19-.016-.286-.026h-.02a11.058 11.058 0 0 0 9.819-10.988v-1a12.592 12.592 0 0 0 2.481-1.846z" class="cls-5" transform="translate(-400.225 -201.999)"/>
            </g>
            <g id="Group_1769" transform="translate(20.602 11.703)">
                <path id="Path_543" d="M408.854 204.7a8.148 8.148 0 0 1-5.055-6.381h5.055z" class="cls-1" transform="translate(-403.799 -198.317)"/>
            </g>
            <g id="Group_1770" transform="translate(23.176 11.731)">
                <path id="Path_544" d="M407.55 198.331v6.352a8.633 8.633 0 0 1-2.481-1.545v-4.808z" class="cls-1" transform="translate(-405.069 -198.331)"/>
            </g>
            <g id="Group_1771" transform="translate(2.195 6.844)">
                <path id="Path_545" fill="#98c9cf" d="M418.5 199.68h-22.758a1.023 1.023 0 0 1-1.024-1.024v-1.713a1.023 1.023 0 0 1 1.024-1.024H418.5a1.023 1.023 0 0 1 1.024 1.024v1.713a1.023 1.023 0 0 1-1.024 1.024z" transform="translate(-394.718 -195.92)"/>
            </g>
            <g id="Group_1772" transform="translate(23.5 6.844)">
                <path id="Path_546" fill="#7dadb9" d="M408.729 196.942v1.717a1.022 1.022 0 0 1-1.024 1.022h-2.477a1.022 1.022 0 0 0 1.024-1.022v-1.717a1.023 1.023 0 0 0-1.024-1.022h2.477a1.023 1.023 0 0 1 1.024 1.022z" transform="translate(-405.229 -195.92)"/>
            </g>
            <g id="Group_1773" transform="translate(10.926 5.259)">
                <circle id="Ellipse_29" cx="3.672" cy="3.672" r="3.672" fill="#eaf3f4"/>
            </g>
            <g id="Group_1774" transform="translate(11.728 5.405)">
                <path id="Path_547" fill="#d5e7ed" d="M405.964 198.737a3.672 3.672 0 0 1-6.543 2.288 3.676 3.676 0 0 0 4.694-3.527 3.643 3.643 0 0 0-.8-2.288 3.671 3.671 0 0 1 2.649 3.527z" transform="translate(-399.421 -195.21)"/>
            </g>
        </g>
        <g id="Group_1777" transform="translate(393.177 191.645)">
            <path id="Path_548" d="M401.337 198.437a.987.987 0 1 0-.987-.987.987.987 0 0 0 .987.987z" class="cls-11" transform="translate(-385.811 -186.697)"/>
            <g id="Group_1776">
                <path id="Path_549" d="M399.428 200.559a.929.929 0 0 0-.928.93v1.39a.928.928 0 1 0 1.857 0v-1.39a.929.929 0 0 0-.929-.93z" class="cls-11" transform="translate(-387.711 -182.491)"/>
                <path id="Path_550" d="M403.187 203.808a.928.928 0 0 0 .928-.928v-1.39a.929.929 0 1 0-1.859 0v1.39a.93.93 0 0 0 .931.928z" class="cls-11" transform="translate(-383.852 -182.491)"/>
                <path id="Path_551" d="M420.62 215.881h.535a3.077 3.077 0 0 0 0-6.154h-.464v-4.619a1.951 1.951 0 0 0 1.344-1.853v-1.715a1.954 1.954 0 0 0-.924-1.658 10.089 10.089 0 0 0 .553-6.152 1.816 1.816 0 0 0-1.492-1.419 9.776 9.776 0 0 0-5.505.442 1.808 1.808 0 0 0-1.818-1.1 12.775 12.775 0 0 0-4.263 1.074 1.822 1.822 0 0 0-.466-.584 1.8 1.8 0 0 0-1.461-.381 18.441 18.441 0 0 0-3.734 1.115.929.929 0 0 0 .732 1.709 16.575 16.575 0 0 1 3.267-.983l.01.61a.93.93 0 0 0 1.49.726 9.436 9.436 0 0 1 4.526-1.429v.876a.938.938 0 0 0 .624.9.9.9 0 0 0 1.016-.3 3.016 3.016 0 0 1 1.119-.636 8.49 8.49 0 0 1 4.145-.2 7.764 7.764 0 0 1-.7 5.446h-6.808a4.594 4.594 0 0 0-7.281 0h-5.781a6.412 6.412 0 0 1 1.208-2.8.929.929 0 0 0-1.472-1.135 8.282 8.282 0 0 0-1.615 3.93h-.081a1.954 1.954 0 0 0-1.95 1.952v1.715a1.951 1.951 0 0 0 1.344 1.853v4.619h-.464a3.077 3.077 0 0 0 0 6.154h.535a12.015 12.015 0 0 0 8.381 10.155v2.047a14.568 14.568 0 0 0-11.006 14.106V254.2a.929.929 0 0 0 .93.928h27.222a.93.93 0 0 0 .93-.928v-5.045a.929.929 0 1 0-1.859 0v4.115h-4.173v-11.882a.929.929 0 0 0-1.859 0v11.882h-13.3v-11.882a.928.928 0 1 0-1.857 0v11.882h-4.173v-11.081a12.7 12.7 0 0 1 9.148-12.178 3.534 3.534 0 0 0 7.068 0 12.7 12.7 0 0 1 9.15 12.18v2.635a.928.928 0 1 0 1.857 0v-2.635a14.564 14.564 0 0 0-11-14.1v-2.049a12.018 12.018 0 0 0 8.382-10.155zm.071-4.3h.464a1.218 1.218 0 1 1 0 2.436h-.464zm-23.975 2.436h-.464a1.218 1.218 0 1 1 0-2.436h.464zm16.489-12.577h6.879a.1.1 0 0 1 .093.1v1.715a.094.094 0 0 1-.093.093h-6.879a4.612 4.612 0 0 0 0-1.9zm5.629 3.762v3.92a6.981 6.981 0 0 1-3-3.92zm-10.134-5.549a2.743 2.743 0 1 1-2.744 2.745 2.747 2.747 0 0 1 2.744-2.745zm-11.475 3.6v-1.713a.1.1 0 0 1 .093-.1h6.88a4.608 4.608 0 0 0 0 1.9h-6.88a.094.094 0 0 1-.089-.085zm4.346 1.952a6.937 6.937 0 0 1-3 3.926v-3.926zm1.909 0h1.579a4.594 4.594 0 0 0 7.281 0h1.579a8.982 8.982 0 0 0 4.978 6.087c-.967.892-5.667 4.125-10.2 4.125s-9.233-3.233-10.2-4.125a8.984 8.984 0 0 0 4.987-6.085zm6.9 24.769a1.676 1.676 0 0 1-3.353 0v-3.523a12.006 12.006 0 0 0 3.353 0zm-1.676-5.264a10.14 10.14 0 0 1-10.131-10.129v-.906c2.169 1.5 6.1 3.6 10.131 3.6s7.96-2.1 10.129-3.6v.906a10.14 10.14 0 0 1-10.133 10.132z" class="cls-11" transform="translate(-393.177 -191.645)"/>
            </g>
        </g>
    </g>
</svg>
