<svg xmlns="http://www.w3.org/2000/svg" width="168.832" height="37.625" viewBox="0 0 168.832 37.625">
    <path fill-rule="evenodd" d="M12.421 11.945a9.226 9.226 0 0 1 8.166 4.355c2.072-3.475 5.733-4.358 8.677-4.358a9.267 9.267 0 0 1 9.626 9.671v15.293h-5.2V23.382c0-4.083-2.053-6.4-5.514-6.4-3.344 0-6.138 2.26-6.138 6.4v13.525h-5.194V23.382c0-4.083-2.059-6.4-5.521-6.4-3.338 0-6.133 2.26-6.133 6.4v13.525H0V21.41c1.11-10.322 12.421-9.464 12.421-9.464zm36.7 12.827c0 4.613 3.193 7.824 7.419 7.824s7.444-3.211 7.444-7.823-3.217-7.81-7.444-7.81-7.419 3.211-7.419 7.81zm20.175 0a12.729 12.729 0 1 1-12.727-12.727A12.728 12.728 0 0 1 69.3 24.773zm10.967 0c0 4.613 3.181 7.824 7.4 7.824s7.437-3.211 7.437-7.822-3.206-7.81-7.432-7.81-7.4 3.211-7.4 7.81zm20.146 0a12.728 12.728 0 1 1-12.726-12.728 12.728 12.728 0 0 1 12.728 12.729zm16.254-12.846c10.31 0 10.616 9.677 10.616 9.677v15.3h-5v-13.53c0-4.086-2.282-6.4-5.615-6.4-3.211 0-5.6 2.261-5.6 6.4v13.534h-4.993V21.535s.284-9.607 10.594-9.607zm34.751 6.743a14.356 14.356 0 0 0-7.162-2.092c-2.761 0-4.386 1.171-4.386 2.91s1.693 2.2 3.823 2.525l2.4.387c5.063.765 8.061 3.039 8.061 7.226 0 4.7-3.874 7.994-10.561 7.994a16.4 16.4 0 0 1-9.946-3.143l2.344-4.006a11.286 11.286 0 0 0 7.652 2.5c3.462 0 5.281-1.147 5.281-2.988 0-1.376-1.257-2.294-4.019-2.7l-2.442-.335c-5.138-.74-7.873-3.221-7.873-7.175 0-4.849 3.665-7.838 9.594-7.838a16.962 16.962 0 0 1 9.393 2.576l-2.163 4.167zM166.667 8.9a7.524 7.524 0 0 1-7.488 1.764 7.249 7.249 0 0 1-5.025-5.689.3.3 0 0 1 .159-.321.317.317 0 0 1 .367.049 7.61 7.61 0 0 0 7.68 1.549A7.3 7.3 0 0 0 167.223.26a.314.314 0 0 1 .577-.114 7.046 7.046 0 0 1-1.129 8.754z" transform="translate(0 .003)"/>
</svg>
