<svg id="Layer_2" data-name="Layer 2" xmlns="http://www.w3.org/2000/svg" width="182.031" height="136.535"
     viewBox="0 0 182.031 136.535">
    <path id="Trazado_1" data-name="Trazado 1"
          d="M155.207,110.326a93.34,93.34,0,0,1-92.85,21.884c-32.7-10.257-56.779-37.488-62.3-70.5a3.715,3.715,0,0,1,1.959-3.982,3.941,3.941,0,0,1,4.519.6,94.244,94.244,0,0,0,95.228,19.19C134.693,65.9,158.055,37.131,162.048,3.245A3.9,3.9,0,0,1,166.531.014a3.853,3.853,0,0,1,2.673,1.8,87.373,87.373,0,0,1-13.993,108.51"
          transform="translate(0.004 0.037)"/>
</svg>
